<svg width="635" height="111" viewBox="0 0 635 111" fill="none" xmlns="http://www.w3.org/2000/svg">
<g clip-path="url(#clip0_14_114)">
<path d="M139.567 86.0274L143.351 77.6653C144.031 76.1667 145.872 75.5502 147.288 76.3943C153.645 80.1976 162.109 82.7237 170.234 82.7237C180.845 82.7237 185.156 79.2018 185.156 74.469C185.156 60.0494 140.167 69.9575 140.167 41.3397C140.167 28.2417 150.778 17.344 172.774 17.344C181.546 17.344 190.5 19.2251 197.444 22.9051C198.707 23.5753 199.26 25.0865 198.72 26.408L195.266 34.8745C194.656 36.3635 192.907 37.018 191.459 36.3035C185.118 33.1799 178.679 31.6529 172.666 31.6529C162.055 31.6529 157.966 35.6143 157.966 40.4577C157.966 54.6559 202.955 44.8616 202.955 73.1475C202.955 86.0243 192.234 97.0326 170.126 97.0326C158.94 97.0326 147.666 94.0133 140.567 89.4798C139.417 88.7463 139.008 87.2667 139.57 86.0274H139.567Z" fill="#FBBD2D"/>
<path d="M206.721 66.1037C206.721 48.2729 220.539 35.6143 239.881 35.6143C251.244 35.6143 260.413 40.0783 265.22 48.178C266.014 49.5153 265.481 51.251 264.109 51.9845L255.394 56.6477C254.155 57.3084 252.647 56.9227 251.809 55.8035C248.685 51.6177 244.478 49.705 239.77 49.705C231.038 49.705 224.183 55.7593 224.183 66.1069C224.183 76.4544 231.038 82.5055 239.77 82.5055C244.51 82.5055 248.739 80.6529 251.873 76.3532C252.685 75.2404 254.232 74.9495 255.444 75.6103L264.109 80.3178C265.481 81.0607 266.001 82.8059 265.192 84.1337C260.375 92.0564 251.222 96.5931 239.877 96.5931C220.535 96.5931 206.718 83.9345 206.718 66.1037H206.721Z" fill="#FBBD2D"/>
<path d="M308.95 38.4944V48.5005C308.95 50.0781 307.629 51.3269 306.045 51.2668C305.73 51.2542 305.413 51.2478 305.079 51.2478C295.573 51.2478 289.271 56.42 289.271 67.7572V92.9448C289.271 94.4749 288.026 95.7142 286.49 95.7142H274.809C273.272 95.7142 272.028 94.4749 272.028 92.9448V39.2658C272.028 37.7356 273.272 36.4963 274.809 36.4963H285.715C287.252 36.4963 288.496 37.7356 288.496 39.2658V44.3115C292.233 39.2215 298.244 36.3066 305.984 35.7249C307.584 35.6048 308.946 36.8978 308.946 38.4944H308.95Z" fill="#FBBD2D"/>
<path d="M367.093 61.921V92.9416C367.093 94.4718 365.849 95.7111 364.312 95.7111H353.736C352.199 95.7111 350.955 94.4718 350.955 92.9416V88.3385C347.751 93.732 341.56 96.5931 332.826 96.5931C318.897 96.5931 310.607 88.8886 310.607 78.6517C310.607 68.4147 318.014 60.9315 336.14 60.9315H349.847C349.847 53.5557 345.427 49.2656 336.14 49.2656C330.933 49.2656 325.577 50.6946 321.443 53.1131C320.068 53.9161 318.303 53.404 317.576 51.9908L313.972 45.0071C313.303 43.7108 313.744 42.0985 315.007 41.3619C321.389 37.6345 329.971 35.6143 338.461 35.6143C356.59 35.6143 367.09 43.9796 367.09 61.921H367.093ZM349.85 77.0014V70.9471H338.023C329.955 70.9471 327.412 73.9189 327.412 77.8802C327.412 82.1736 331.06 85.0347 337.14 85.0347C342.89 85.0347 347.862 82.3917 349.853 77.0014H349.85Z" fill="#FBBD2D"/>
<path d="M473.675 61.8104V92.9416C473.675 94.4718 472.43 95.7111 470.894 95.7111H459.213C457.676 95.7111 456.432 94.4718 456.432 92.9416V64.4534C456.432 54.8772 452.12 50.4764 445.157 50.4764C437.42 50.4764 432.003 55.4305 432.003 65.9962V92.9448C432.003 94.4749 430.759 95.7142 429.222 95.7142H417.541C416.004 95.7142 414.76 94.4749 414.76 92.9448V64.4566C414.76 54.8804 410.67 50.4796 403.485 50.4796C395.859 50.4796 390.442 55.4337 390.442 65.9994V92.9479C390.442 94.4781 389.198 95.7174 387.661 95.7174H375.98C374.444 95.7174 373.199 94.4781 373.199 92.9479V39.2658C373.199 37.7356 374.444 36.4963 375.98 36.4963H386.886C388.423 36.4963 389.668 37.7356 389.668 39.2658V43.3188C394.09 38.2573 400.72 35.6143 408.349 35.6143C416.639 35.6143 423.716 38.8074 427.914 45.3011C432.667 39.2468 440.404 35.6143 449.358 35.6143C463.505 35.6143 473.675 43.7583 473.675 61.8104Z" fill="#FBBD2D"/>
<path d="M544.417 66.1036C544.417 84.7058 531.485 96.5931 514.794 96.5931C506.835 96.5931 500.424 94.0607 496.113 88.8885V92.9415C496.113 94.4717 494.868 95.711 493.332 95.711H482.425C480.889 95.711 479.644 94.4717 479.644 92.9415V16.8128C479.644 15.2826 480.889 14.0433 482.425 14.0433H494.106C495.643 14.0433 496.887 15.2826 496.887 16.8128V42.7718C501.31 37.9284 507.387 35.6174 514.794 35.6174C531.485 35.6174 544.417 47.5046 544.417 66.1068V66.1036ZM526.952 66.1036C526.952 55.8667 520.43 49.7018 511.81 49.7018C503.19 49.7018 496.665 55.8667 496.665 66.1036C496.665 76.3405 503.187 82.5023 511.81 82.5023C520.433 82.5023 526.952 76.3405 526.952 66.1036Z" fill="#FBBD2D"/>
<path d="M552.288 14.0433H563.969C565.506 14.0433 566.75 15.2826 566.75 16.8128V92.9415C566.75 94.4717 565.506 95.711 563.969 95.711H552.288C550.751 95.711 549.507 94.4717 549.507 92.9415V16.8128C549.507 15.2826 550.751 14.0433 552.288 14.0433Z" fill="#FBBD2D"/>
<path d="M632.117 70.9471H589.68C591.337 78.3228 597.64 82.8343 606.701 82.8343C612.01 82.8343 616.064 81.5065 619.655 78.7813C620.817 77.9024 622.446 77.9941 623.433 79.0626L629.006 85.079C630.037 86.1918 629.999 87.9464 628.882 88.9708C623.424 93.9722 615.807 96.5899 606.26 96.5899C585.702 96.5899 572.325 83.7132 572.325 66.1005C572.325 48.4878 585.921 35.6111 604.05 35.6111C622.179 35.6111 635 47.277 635 66.3187C635 66.9225 634.952 67.6433 634.892 68.3863C634.775 69.8279 633.571 70.9408 632.117 70.9408V70.9471ZM589.458 60.9315H618.75C617.534 53.4482 611.895 48.6048 604.158 48.6048C596.421 48.6048 590.671 53.3376 589.458 60.9315Z" fill="#FBBD2D"/>
<path d="M55.7371 111C86.4711 111 111.474 86.1032 111.474 55.5C111.471 24.8968 86.4679 0 55.7371 0C25.0063 0 0 24.8968 0 55.5C0 86.1032 25.0031 111 55.7371 111ZM50.6158 35.102H72.8059C76.5778 35.102 79.6354 38.1466 79.6354 41.9024C79.6354 45.6583 76.5778 48.7028 72.8059 48.7028H40.1288C36.3569 48.7028 33.2994 51.7473 33.2994 55.5032C33.2994 59.259 36.3569 62.3035 40.1288 62.3035H72.8059C76.5778 62.3035 79.6354 65.348 79.6354 69.1039C79.6354 72.8598 76.5778 75.9043 72.8059 75.9043H50.6158C46.8439 75.9043 43.7864 78.9488 43.7864 82.7046C43.7864 86.4605 46.8439 89.505 50.6158 89.505H55.7371C59.4932 89.505 62.538 92.5242 62.5634 96.2548C62.538 100.652 58.9915 102.869 52.4637 102.869C52.0065 102.869 51.5906 102.875 51.2064 102.888C26.9335 100.618 7.9375 80.2735 7.9375 55.5095C7.9375 30.442 27.4003 9.90179 52.0954 8.05232C52.2129 8.05232 52.3367 8.05232 52.4605 8.05232C57.3913 8.05232 60.6203 9.31692 61.9157 11.8303C62.2808 12.6049 62.5062 13.4616 62.5507 14.3627C62.557 14.4765 62.5602 14.5934 62.5602 14.7136C62.5602 18.4694 59.5027 21.514 55.7308 21.514H50.6095C46.8376 21.514 43.7801 24.5585 43.7801 28.3143C43.7801 32.0702 46.8376 35.1147 50.6095 35.1147L50.6158 35.102Z" fill="#FBBD2D"/>
</g>
<defs>
<clipPath id="clip0_14_114">
<rect width="635" height="111" fill="white"/>
</clipPath>
</defs>
</svg>
